<?xml version="1.0" encoding="UTF-8"?>
<svg xmlns="http://www.w3.org/2000/svg" width="240" height="146" viewBox="0 0 240 146" fill="none">
  <path d="M193.091 66.86C182.381 60.31 166.651 57.01 152.441 55.37L146.391 38.74C149.987 37.3033 153.412 35.4685 156.601 33.27C160.211 30.74 157.321 29.27 157.321 29.27C145.487 33.6548 132.939 35.7915 120.321 35.57H119.041C106.423 35.7915 93.8742 33.6548 82.0405 29.27C82.0405 29.27 79.1505 30.72 82.7605 33.27C85.9492 35.4685 89.3738 37.3033 92.9705 38.74L86.9206 55.37C72.7106 57.01 56.9805 60.31 46.2705 66.86C46.2705 66.86 44.7105 69.26 47.6605 68.64C50.6105 68.02 67.3006 62.55 119.261 62.74H120.081C172.081 62.55 188.741 68.03 191.671 68.64C194.601 69.25 193.091 66.86 193.091 66.86ZM135.761 54.05C127.671 53.69 121.601 53.79 119.681 53.84C117.761 53.89 111.681 53.69 103.621 54.06V41.97C108.9 43.07 114.29 43.5466 119.681 43.39C125.078 43.5465 130.474 43.07 135.761 41.97V54.05Z" fill="#141E29"></path>
  <path d="M170.521 12.6099L154.291 8.68994L156.291 13.1299C150.491 16.1299 137.651 21.3799 119.671 21.2599C94.6708 21.4199 79.5908 11.1499 79.5908 11.1499V21.2999C91.9858 27.3144 105.555 30.5205 119.331 30.6899H119.931C133.721 30.5233 147.305 27.3135 159.711 21.2899V21.0399L161.631 25.3899L170.521 12.6099Z" fill="#F32735"></path>
  <path d="M144.85 5.55C144.85 5.55 134.77 11.31 119.77 0C104.77 11.32 94.7 5.55 94.7 5.55L93.46 12.81C97.8602 14.2176 102.527 14.5835 107.093 13.8789C111.659 13.1743 115.999 11.4185 119.77 8.75C123.542 11.4178 127.881 13.1732 132.447 13.8778C137.013 14.5823 141.68 14.2168 146.08 12.81L144.85 5.55Z" fill="#F32735"></path>
  <path d="M1.87 92.53H1.95C2.40767 91.6535 3.10188 90.9227 3.95385 90.4207C4.80582 89.9187 5.78144 89.6656 6.77 89.69C7.9221 89.6533 9.05801 89.9687 10.0263 90.594C10.9947 91.2193 11.7494 92.1249 12.19 93.19C12.6712 92.1172 13.4606 91.2116 14.4577 90.5884C15.4548 89.9652 16.6147 89.6525 17.79 89.69C22.74 89.69 23.74 93.06 23.74 97.26V109.32H21.87V97.02C21.87 94.02 21.41 91.45 17.75 91.45C13.75 91.45 12.75 94.94 12.75 98.27V109.33H10.93V97.48C10.93 94.48 10.39 91.48 6.65 91.48C2.65 91.48 1.87 95.68 1.87 98.79V109.36H0V90.12H1.87V92.53Z" fill="#141E29"></path>
  <path d="M52.8408 109.33H50.9708V105.87H50.8908C50.0943 107.078 49.006 108.066 47.7266 108.743C46.4472 109.419 45.0179 109.762 43.5708 109.74C37.7508 109.74 34.0908 105.21 34.0908 99.6C34.0908 93.99 37.7008 89.7 43.4808 89.7C44.9274 89.671 46.3592 89.9967 47.6509 90.6486C48.9426 91.3006 50.055 92.259 50.8908 93.44H50.9708V90.12H52.8408V109.33ZM35.9608 99.6C35.9608 104 38.8708 108 43.5308 108C48.4308 108 51.0908 104 51.0908 99.39C51.0908 94.94 48.0908 91.45 43.4008 91.45C38.9908 91.45 35.9608 95.44 35.9608 99.6Z" fill="#141E29"></path>
  <path d="M66.9302 92.61H67.0202C67.3218 91.7479 67.8866 91.0022 68.6348 90.4782C69.383 89.9543 70.2769 89.6786 71.1902 89.69C71.882 89.6996 72.5638 89.8564 73.1902 90.15L72.1902 91.81C71.7894 91.5668 71.3291 91.4387 70.8602 91.44C66.6602 91.44 66.8602 96.68 66.8602 99.5V109.32H64.9902V90.12H66.8602L66.9302 92.61Z" fill="#141E29"></path>
  <path d="M84.3105 98.27L92.2105 90.12H94.6205L86.5605 98.43L97.3305 109.33H94.8705L85.3505 99.69L84.3505 100.77V109.3H82.4805V75.02H84.3505L84.3105 98.27Z" fill="#141E29"></path>
  <path d="M106.011 99.8899C105.891 104.75 109.261 108 113.701 108C115.125 107.972 116.513 107.548 117.711 106.777C118.908 106.005 119.867 104.915 120.481 103.63L122.061 104.54C121.271 106.136 120.042 107.472 118.519 108.394C116.995 109.315 115.24 109.782 113.461 109.74C107.761 109.74 104.141 105.13 104.141 99.6799C104.141 94.2299 107.841 89.6799 113.461 89.6799C119.281 89.6799 122.731 94.3399 122.691 99.8699L106.011 99.8899ZM120.811 98.1399C120.62 96.31 119.758 94.6156 118.392 93.3838C117.025 92.1521 115.25 91.4704 113.411 91.4704C111.571 91.4704 109.796 92.1521 108.43 93.3838C107.063 94.6156 106.201 96.31 106.011 98.1399H120.811Z" fill="#141E29"></path>
  <path d="M135.12 109.33H133.25V91.86H131.12V90.12H133.25V83.26H135.12V90.12H138.48V91.86H135.12V109.33Z" fill="#141E29"></path>
  <path d="M161.8 75.04H166.39V109.33H161.8V107.26C161.01 108.085 160.062 108.743 159.012 109.194C157.962 109.646 156.833 109.883 155.69 109.89C154.416 109.914 153.151 109.658 151.987 109.14C150.822 108.621 149.785 107.853 148.95 106.89C147.147 104.797 146.197 102.101 146.29 99.34C146.206 96.6283 147.157 93.9861 148.95 91.95C149.766 90.989 150.784 90.2213 151.933 89.7025C153.081 89.1836 154.33 88.9266 155.59 88.95C156.768 88.9628 157.929 89.2232 158.999 89.7142C160.069 90.2052 161.023 90.9159 161.8 91.8V75.04ZM150.96 99.38C150.888 101.058 151.432 102.705 152.49 104.01C152.969 104.585 153.571 105.045 154.251 105.357C154.931 105.668 155.672 105.823 156.42 105.81C157.191 105.838 157.959 105.697 158.669 105.397C159.379 105.096 160.014 104.643 160.53 104.07C161.542 102.754 162.091 101.14 162.091 99.48C162.091 97.8198 161.542 96.2062 160.53 94.89C160.026 94.3145 159.4 93.8581 158.698 93.5537C157.996 93.2494 157.235 93.1047 156.47 93.13C155.722 93.113 154.98 93.2641 154.298 93.5722C153.616 93.8802 153.012 94.3374 152.53 94.91C151.47 96.1534 150.911 97.7468 150.96 99.38Z" fill="#F32735"></path>
  <path d="M175.13 99.2999C175.107 97.9381 175.368 96.5865 175.896 95.3314C176.425 94.0762 177.209 92.945 178.2 92.0099C180.213 90.0668 182.902 88.981 185.7 88.981C188.498 88.981 191.186 90.0668 193.2 92.0099C195.154 93.9931 196.249 96.6656 196.249 99.4499C196.249 102.234 195.154 104.907 193.2 106.89C192.202 107.87 191.018 108.641 189.718 109.156C188.418 109.671 187.028 109.921 185.63 109.89C184.248 109.932 182.872 109.687 181.59 109.171C180.308 108.654 179.147 107.878 178.18 106.89C177.175 105.903 176.386 104.72 175.861 103.414C175.336 102.107 175.087 100.707 175.13 99.2999ZM179.8 99.3799C179.708 101.088 180.274 102.765 181.38 104.07C182.53 105.18 184.066 105.801 185.665 105.801C187.263 105.801 188.799 105.18 189.95 104.07C190.991 102.759 191.558 101.134 191.558 99.4599C191.558 97.7856 190.991 96.1607 189.95 94.8499C189.402 94.271 188.736 93.8162 187.998 93.5161C187.26 93.2159 186.466 93.0774 185.67 93.1099C184.879 93.0793 184.092 93.2188 183.36 93.519C182.629 93.8192 181.97 94.2731 181.43 94.8499C180.312 96.0868 179.726 97.7143 179.8 99.3799Z" fill="#F32735"></path>
  <path d="M204.272 81.3299C204.267 80.9428 204.343 80.559 204.495 80.2027C204.646 79.8464 204.87 79.5254 205.152 79.2599C205.713 78.7102 206.466 78.4023 207.252 78.4023C208.037 78.4023 208.791 78.7102 209.352 79.2599C209.633 79.5293 209.856 79.8541 210.006 80.2138C210.155 80.5735 210.229 80.9604 210.222 81.3499C210.229 81.7424 210.155 82.1322 210.005 82.4951C209.856 82.858 209.633 83.1864 209.352 83.4599C209.083 83.7428 208.758 83.967 208.399 84.1184C208.039 84.2699 207.652 84.3453 207.262 84.3399C206.466 84.3399 205.703 84.0239 205.14 83.4612C204.578 82.8986 204.262 82.1356 204.262 81.3399L204.272 81.3299ZM209.532 89.5499V120.09H204.962V89.5499H209.532Z" fill="#F32735"></path>
  <path d="M218.29 99.2999C218.267 97.9381 218.528 96.5865 219.057 95.3314C219.585 94.0762 220.37 92.945 221.36 92.0099C223.373 90.0668 226.062 88.981 228.86 88.981C231.658 88.981 234.347 90.0668 236.36 92.0099C238.314 93.9931 239.409 96.6656 239.409 99.4499C239.409 102.234 238.314 104.907 236.36 106.89C235.362 107.87 234.179 108.641 232.878 109.156C231.578 109.671 230.188 109.921 228.79 109.89C227.408 109.932 226.033 109.687 224.75 109.171C223.468 108.654 222.307 107.878 221.34 106.89C220.336 105.903 219.546 104.72 219.021 103.414C218.497 102.107 218.247 100.707 218.29 99.2999ZM222.96 99.3799C222.869 101.088 223.434 102.765 224.54 104.07C225.69 105.18 227.226 105.801 228.825 105.801C230.423 105.801 231.96 105.18 233.11 104.07C234.151 102.759 234.718 101.134 234.718 99.4599C234.718 97.7856 234.151 96.1607 233.11 94.8499C231.97 93.7352 230.439 93.111 228.845 93.111C227.25 93.111 225.72 93.7352 224.58 94.8499C223.469 96.0906 222.888 97.7163 222.96 99.3799Z" fill="#F32735"></path>
  <path d="M16.4401 140.19C15.8336 140.197 15.2307 140.095 14.6601 139.89C14.1513 139.705 13.6852 139.42 13.2901 139.05C12.9149 138.701 12.6154 138.279 12.4101 137.81C12.1991 137.345 12.09 136.84 12.0901 136.33C12.0836 135.775 12.2178 135.228 12.4801 134.74C12.7481 134.257 13.1205 133.84 13.5701 133.52C14.0809 133.156 14.6536 132.889 15.2601 132.73C15.9665 132.535 16.6971 132.44 17.4301 132.45C18.0803 132.453 18.7292 132.51 19.3701 132.62C19.9763 132.712 20.5701 132.873 21.1401 133.1V131.96C21.1601 131.474 21.0818 130.988 20.91 130.533C20.7382 130.078 20.4763 129.662 20.1401 129.31C19.8038 128.972 19.4004 128.709 18.9561 128.536C18.5117 128.364 18.0361 128.287 17.5601 128.31C16.8752 128.317 16.1974 128.449 15.5601 128.7C14.8342 128.989 14.1459 129.365 13.5101 129.82L12.9301 128.73C13.6761 128.219 14.4822 127.803 15.3301 127.49C16.1101 127.213 16.9324 127.074 17.7601 127.08C18.4281 127.045 19.0962 127.145 19.7249 127.374C20.3535 127.602 20.93 127.955 21.4201 128.41C21.8883 128.898 22.2508 129.478 22.4848 130.113C22.7188 130.748 22.8193 131.424 22.7801 132.1V137.8C22.7801 138.26 22.9801 138.48 23.3701 138.48V139.94H23.0001H22.7101C22.3931 139.941 22.0845 139.839 21.8301 139.65C21.6938 139.546 21.5826 139.413 21.5047 139.261C21.4268 139.109 21.3842 138.941 21.3801 138.77L21.3301 137.77C20.7821 138.543 20.0453 139.162 19.1901 139.57C18.331 139.979 17.3915 140.19 16.4401 140.19ZM16.8501 138.93C17.598 138.924 18.3367 138.764 19.0201 138.46C19.6913 138.179 20.2798 137.732 20.7301 137.16C20.8419 137.01 20.939 136.849 21.0201 136.68C21.0949 136.534 21.1359 136.374 21.1401 136.21V134.15C20.5815 133.939 20.0061 133.775 19.4201 133.66C18.8431 133.55 18.2573 133.493 17.6701 133.49C16.6636 133.444 15.6657 133.694 14.8001 134.21C14.4524 134.413 14.1659 134.706 13.9705 135.057C13.7752 135.409 13.6783 135.808 13.6901 136.21C13.6903 136.553 13.7583 136.893 13.8901 137.21C14.0235 137.541 14.2244 137.841 14.4801 138.09C14.7737 138.357 15.1122 138.57 15.4801 138.72C15.9191 138.877 16.3842 138.948 16.8501 138.93Z" fill="#141E29"></path>
  <path d="M37.7404 139.95H36.0904V132.89C36.1766 131.758 35.9519 130.624 35.4404 129.61C35.2224 129.284 34.9233 129.021 34.5727 128.845C34.222 128.67 33.8318 128.589 33.4404 128.61C32.9415 128.612 32.447 128.704 31.9804 128.88C30.9858 129.248 30.1275 129.911 29.5204 130.78C29.2077 131.224 28.9648 131.713 28.8004 132.23V139.97H27.1104V127.3H28.6204V130.17C29.1576 129.246 29.9261 128.477 30.8504 127.94C31.3175 127.664 31.8183 127.448 32.3404 127.3C32.8757 127.159 33.4269 127.089 33.9804 127.09C34.5989 127.071 35.2129 127.201 35.7704 127.47C36.2426 127.731 36.6389 128.11 36.9204 128.57C37.2335 129.1 37.447 129.683 37.5504 130.29C37.6845 131.036 37.7481 131.792 37.7404 132.55V139.95Z" fill="#141E29"></path>
  <path d="M60.82 138.44V139.95H49.25V122.69H60.61V124.19H50.92V130.4H59.37V131.84H50.92V138.41L60.82 138.44Z" fill="#141E29"></path>
  <path d="M68.57 140.19C67.5868 140.191 66.6102 140.029 65.68 139.71C64.7845 139.406 63.9585 138.926 63.25 138.3L64 137.18C64.6588 137.726 65.3973 138.168 66.19 138.49C66.9415 138.785 67.7425 138.935 68.55 138.93C69.407 138.971 70.2567 138.755 70.99 138.31C71.2815 138.121 71.5187 137.859 71.6783 137.55C71.8378 137.242 71.9143 136.897 71.9 136.55C71.912 136.239 71.8282 135.932 71.66 135.67C71.4754 135.406 71.2279 135.193 70.94 135.05C70.5637 134.843 70.1642 134.682 69.75 134.57C69.28 134.44 68.75 134.29 68.09 134.15C67.43 134.01 66.73 133.79 66.2 133.61C65.7352 133.47 65.2913 133.268 64.88 133.01C64.5513 132.803 64.2824 132.513 64.1 132.17C63.9154 131.78 63.8263 131.351 63.84 130.92C63.8297 130.341 63.9601 129.768 64.22 129.25C64.455 128.774 64.7974 128.36 65.22 128.04C65.6743 127.717 66.1821 127.476 66.72 127.33C67.3197 127.167 67.9386 127.086 68.56 127.09C69.4621 127.075 70.3585 127.234 71.2 127.56C71.925 127.829 72.5809 128.256 73.12 128.81L72.32 129.81C71.8434 129.317 71.2576 128.944 70.61 128.72C69.9377 128.472 69.2265 128.347 68.51 128.35C68.0993 128.349 67.6898 128.396 67.29 128.49C66.9339 128.568 66.595 128.71 66.29 128.91C66.0143 129.103 65.7854 129.356 65.62 129.65C65.453 129.978 65.3705 130.342 65.38 130.71C65.3695 130.993 65.4278 131.274 65.55 131.53C65.6808 131.762 65.875 131.953 66.11 132.08C66.4269 132.254 66.7624 132.391 67.11 132.49C67.51 132.61 67.99 132.74 68.56 132.87C69.37 133.06 70.08 133.26 70.69 133.45C71.2313 133.607 71.7492 133.836 72.23 134.13C72.6276 134.373 72.9523 134.718 73.17 135.13C73.3902 135.548 73.4971 136.017 73.48 136.49C73.4988 137.023 73.3876 137.553 73.1559 138.034C72.9242 138.515 72.5789 138.932 72.15 139.25C71.092 139.947 69.8341 140.277 68.57 140.19Z" fill="#141E29"></path>
  <path d="M85.8901 139.95L81.1901 133.47L78.4801 135.99V139.99H76.8301V122.23H78.4801V134.23L85.5901 127.29H87.4601L82.2901 132.46L87.6501 139.91L85.8901 139.95Z" fill="#141E29"></path>
  <path d="M95.9207 140.19C95.0666 140.201 94.2196 140.033 93.4343 139.698C92.6489 139.362 91.9426 138.865 91.3607 138.24C90.7913 137.628 90.3404 136.916 90.0307 136.14C89.7147 135.327 89.5553 134.462 89.5607 133.59C89.5562 132.731 89.7157 131.879 90.0307 131.08C90.3382 130.312 90.7896 129.609 91.3607 129.01C91.9302 128.418 92.6095 127.942 93.3607 127.61C94.5368 127.08 95.8494 126.932 97.114 127.187C98.3785 127.441 99.5315 128.086 100.411 129.03C100.964 129.629 101.398 130.328 101.691 131.09C102.005 131.879 102.164 132.721 102.161 133.57C102.161 133.7 102.161 133.82 102.161 133.95C102.165 134.04 102.165 134.13 102.161 134.22H91.3607C91.3996 134.87 91.5589 135.508 91.8307 136.1C92.0771 136.65 92.4152 137.154 92.8307 137.59C93.2401 138.017 93.7325 138.356 94.2775 138.587C94.8226 138.817 95.4089 138.934 96.0007 138.93C96.4165 138.929 96.8302 138.872 97.2307 138.76C97.6217 138.654 97.9979 138.499 98.3507 138.3C98.6874 138.106 98.994 137.863 99.2607 137.58C99.5211 137.309 99.7311 136.994 99.8807 136.65L101.311 137.04C101.117 137.51 100.839 137.94 100.491 138.31C99.7353 139.113 98.7679 139.685 97.7007 139.96C97.12 140.115 96.5215 140.192 95.9207 140.19ZM100.581 132.96C100.54 132.315 100.377 131.684 100.101 131.1C99.8578 130.563 99.5189 130.075 99.1007 129.66C98.6825 129.254 98.1903 128.931 97.6507 128.71C96.5315 128.257 95.2799 128.257 94.1607 128.71C93.6197 128.929 93.1271 129.251 92.7107 129.66C92.2882 130.075 91.9488 130.567 91.7107 131.11C91.4569 131.697 91.3048 132.322 91.2607 132.96H100.581Z" fill="#141E29"></path>
  <path d="M111.67 128.76C110.63 128.766 109.615 129.087 108.76 129.68C107.928 130.269 107.313 131.116 107.01 132.09V139.95H105.36V127.3H106.91V130.3C107.32 129.447 107.906 128.69 108.63 128.08C109.27 127.519 110.089 127.203 110.94 127.19H111.35C111.457 127.178 111.564 127.178 111.67 127.19V128.76Z" fill="#141E29"></path>
  <path d="M120.19 133.59C120.183 132.729 120.339 131.874 120.65 131.07C120.942 130.298 121.384 129.591 121.95 128.99C122.515 128.395 123.195 127.922 123.95 127.6C124.762 127.253 125.637 127.079 126.52 127.09C127.618 127.064 128.702 127.344 129.65 127.9C130.513 128.423 131.207 129.183 131.65 130.09L130.05 130.6C129.705 129.97 129.193 129.448 128.57 129.09C127.926 128.72 127.193 128.53 126.45 128.54C125.829 128.535 125.214 128.668 124.65 128.93C124.097 129.182 123.601 129.542 123.19 129.99C122.754 130.448 122.413 130.988 122.19 131.58C121.949 132.219 121.83 132.897 121.84 133.58C121.837 134.263 121.959 134.941 122.2 135.58C122.421 136.188 122.761 136.746 123.2 137.22C123.611 137.675 124.107 138.046 124.66 138.31C125.218 138.581 125.83 138.721 126.45 138.72C126.856 138.718 127.259 138.66 127.65 138.55C128.035 138.435 128.404 138.274 128.75 138.07C129.074 137.882 129.37 137.649 129.63 137.38C129.855 137.145 130.029 136.866 130.14 136.56L131.74 137.04C131.555 137.499 131.291 137.922 130.96 138.29C130.609 138.678 130.205 139.014 129.76 139.29C129.284 139.579 128.768 139.798 128.23 139.94C127.666 140.092 127.084 140.169 126.5 140.17C125.622 140.182 124.753 140.005 123.95 139.65C123.196 139.308 122.517 138.823 121.95 138.22C120.797 136.956 120.168 135.301 120.19 133.59Z" fill="#141E29"></path>
  <path d="M140.401 140.19C139.529 140.202 138.666 140.025 137.871 139.67C137.116 139.335 136.436 138.852 135.871 138.25C135.306 137.644 134.865 136.934 134.571 136.16C134.261 135.363 134.105 134.515 134.111 133.66C134.107 132.798 134.266 131.943 134.581 131.14C134.884 130.369 135.329 129.66 135.891 129.05C136.458 128.448 137.137 127.962 137.891 127.62C138.679 127.275 139.53 127.096 140.391 127.096C141.251 127.096 142.102 127.275 142.891 127.62C143.642 127.965 144.321 128.45 144.891 129.05C145.449 129.663 145.893 130.37 146.201 131.14C146.672 132.329 146.799 133.626 146.567 134.883C146.335 136.141 145.754 137.307 144.891 138.25C144.323 138.85 143.644 139.333 142.891 139.67C142.107 140.019 141.258 140.197 140.401 140.19ZM135.821 133.69C135.809 134.373 135.927 135.052 136.171 135.69C136.403 136.28 136.742 136.822 137.171 137.29C137.578 137.747 138.075 138.114 138.631 138.37C139.187 138.631 139.796 138.764 140.411 138.76C141.028 138.763 141.637 138.622 142.191 138.35C142.748 138.088 143.248 137.718 143.661 137.26C144.086 136.787 144.425 136.241 144.661 135.65C145.027 134.715 145.127 133.697 144.951 132.709C144.774 131.721 144.328 130.8 143.661 130.05C143.251 129.598 142.759 129.228 142.211 128.96C141.655 128.695 141.046 128.558 140.431 128.56C139.815 128.56 139.207 128.697 138.651 128.96C138.095 129.229 137.598 129.607 137.191 130.07C136.764 130.55 136.425 131.102 136.191 131.7C135.947 132.335 135.822 133.01 135.821 133.69Z" fill="#141E29"></path>
  <path d="M168.92 139.95H167.27V132.89C167.353 131.76 167.113 130.63 166.58 129.63C166.347 129.295 166.031 129.027 165.663 128.852C165.295 128.677 164.887 128.6 164.48 128.63C164.01 128.627 163.544 128.719 163.11 128.9C162.675 129.082 162.273 129.336 161.92 129.65C161.529 129.979 161.192 130.367 160.92 130.8C160.638 131.256 160.425 131.751 160.29 132.27V139.99H158.64V132.89C158.724 131.755 158.489 130.618 157.96 129.61C157.729 129.275 157.415 129.007 157.048 128.832C156.682 128.656 156.276 128.58 155.87 128.61C154.924 128.607 154.012 128.964 153.32 129.61C152.552 130.316 151.998 131.224 151.72 132.23V139.97H150.07V127.3H151.58V130.17C152.038 129.252 152.728 128.47 153.58 127.9C154.415 127.364 155.388 127.082 156.38 127.09C157.32 127.043 158.241 127.362 158.95 127.98C159.608 128.602 160.019 129.44 160.11 130.34C161.29 128.167 162.927 127.083 165.02 127.09C165.635 127.074 166.245 127.205 166.8 127.47C167.289 127.727 167.7 128.11 167.99 128.58C168.311 129.108 168.532 129.691 168.64 130.3C168.787 131.041 168.858 131.795 168.85 132.55L168.92 139.95Z" fill="#141E29"></path>
  <path d="M179.551 140.19C178.545 140.207 177.556 139.925 176.711 139.38C175.9 138.854 175.216 138.154 174.711 137.33V145.12H173.061V127.3H174.541V129.76C175.047 128.969 175.732 128.308 176.541 127.83C177.35 127.337 178.282 127.08 179.231 127.09C180.065 127.081 180.89 127.266 181.641 127.63C182.368 127.985 183.017 128.482 183.551 129.09C184.093 129.707 184.516 130.419 184.801 131.19C185.099 131.972 185.251 132.803 185.251 133.64C185.254 134.497 185.116 135.348 184.841 136.16C184.581 136.924 184.181 137.633 183.661 138.25C183.157 138.842 182.537 139.325 181.841 139.67C181.127 140.017 180.344 140.195 179.551 140.19ZM179.091 138.74C179.731 138.747 180.363 138.596 180.931 138.3C181.475 138.014 181.958 137.623 182.351 137.15C182.751 136.667 183.06 136.115 183.261 135.52C183.472 134.916 183.58 134.28 183.581 133.64C183.576 132.971 183.443 132.309 183.191 131.69C182.955 131.092 182.617 130.541 182.191 130.06C181.771 129.593 181.265 129.213 180.701 128.94C180.118 128.668 179.483 128.528 178.841 128.53C178.392 128.537 177.948 128.625 177.531 128.79C177.073 128.96 176.64 129.189 176.241 129.47C175.858 129.75 175.52 130.087 175.241 130.47C174.974 130.823 174.796 131.234 174.721 131.67V135.56C174.916 136.008 175.165 136.431 175.461 136.82C175.749 137.195 176.085 137.532 176.461 137.82C176.839 138.1 177.257 138.322 177.701 138.48C178.145 138.648 178.615 138.736 179.091 138.74Z" fill="#141E29"></path>
  <path d="M192.071 140.19C191.468 140.196 190.868 140.095 190.301 139.89C189.792 139.705 189.326 139.42 188.931 139.05C188.556 138.701 188.256 138.279 188.051 137.81C187.835 137.347 187.726 136.841 187.731 136.33C187.724 135.775 187.858 135.228 188.121 134.74C188.389 134.257 188.761 133.84 189.211 133.52C189.722 133.156 190.294 132.889 190.901 132.73C191.607 132.535 192.338 132.44 193.071 132.45C193.721 132.453 194.37 132.51 195.011 132.62C195.616 132.715 196.21 132.876 196.781 133.1V131.96C196.801 131.474 196.722 130.988 196.551 130.533C196.379 130.078 196.117 129.662 195.781 129.31C195.444 128.973 195.04 128.71 194.596 128.538C194.152 128.366 193.677 128.288 193.201 128.31C192.516 128.316 191.838 128.448 191.201 128.7C190.475 128.989 189.787 129.365 189.151 129.82L188.571 128.73C189.314 128.216 190.121 127.799 190.971 127.49C191.751 127.213 192.573 127.074 193.401 127.08C194.069 127.045 194.737 127.145 195.366 127.374C195.994 127.602 196.571 127.955 197.061 128.41C197.529 128.898 197.891 129.478 198.125 130.113C198.359 130.748 198.46 131.424 198.421 132.1V137.8C198.421 138.26 198.621 138.48 199.001 138.48V139.94H198.641H198.351C198.031 139.939 197.72 139.837 197.461 139.65C197.328 139.544 197.218 139.41 197.141 139.258C197.063 139.107 197.019 138.94 197.011 138.77V137.77C196.444 138.524 195.693 139.119 194.831 139.5C193.975 139.937 193.031 140.173 192.071 140.19ZM192.491 138.93C193.239 138.923 193.977 138.763 194.661 138.46C195.332 138.179 195.92 137.732 196.371 137.16C196.483 137.01 196.58 136.849 196.661 136.68C196.735 136.534 196.777 136.374 196.781 136.21V134.15C196.222 133.939 195.647 133.775 195.061 133.66C194.484 133.55 193.898 133.493 193.311 133.49C192.304 133.444 191.306 133.694 190.441 134.21C190.093 134.413 189.807 134.706 189.611 135.057C189.416 135.409 189.319 135.808 189.331 136.21C189.331 136.553 189.399 136.893 189.531 137.21C189.657 137.545 189.859 137.846 190.121 138.09C190.413 138.359 190.752 138.573 191.121 138.72C191.56 138.877 192.025 138.948 192.491 138.93Z" fill="#141E29"></path>
  <path d="M213.379 139.95H211.729V132.89C211.81 131.758 211.586 130.625 211.079 129.61C210.861 129.284 210.562 129.021 210.211 128.845C209.861 128.67 209.471 128.589 209.079 128.61C208.58 128.612 208.086 128.703 207.619 128.88C207.132 129.062 206.673 129.315 206.259 129.63C205.836 129.955 205.465 130.343 205.159 130.78C204.842 131.221 204.599 131.711 204.439 132.23V139.97H202.789V127.3H204.299V130.17C204.569 129.706 204.906 129.285 205.299 128.92C205.674 128.529 206.101 128.193 206.569 127.92C207.513 127.35 208.597 127.055 209.699 127.07C210.314 127.05 210.926 127.18 211.479 127.45C211.956 127.707 212.357 128.087 212.639 128.55C212.952 129.08 213.166 129.663 213.269 130.27C213.403 131.016 213.467 131.772 213.459 132.53L213.379 139.95Z" fill="#141E29"></path>
  <path d="M218.02 143.86H218.26H218.5C218.673 143.874 218.847 143.874 219.02 143.86L219.43 143.76C219.53 143.712 219.616 143.64 219.68 143.55C219.814 143.376 219.928 143.189 220.02 142.99C220.16 142.73 220.33 142.36 220.54 141.88C220.75 141.4 221.02 140.76 221.34 139.95L215.83 127.3H217.56L222.24 138.42L226.56 127.3H228.19L221.61 143.61C221.415 144.145 221.067 144.61 220.61 144.95C220.087 145.267 219.48 145.417 218.87 145.38C218.595 145.384 218.32 145.361 218.05 145.31L218.02 143.86Z" fill="#141E29"></path>
</svg>
